<?xml version="1.0" standalone="no"?>
<!DOCTYPE svg PUBLIC "-//W3C//DTD SVG 20010904//EN"
 "http://www.w3.org/TR/2001/REC-SVG-20010904/DTD/svg10.dtd">
<svg version="1.0" xmlns="http://www.w3.org/2000/svg"
 width="564.000000pt" height="564.000000pt" viewBox="0 0 564.000000 564.000000"
 preserveAspectRatio="xMidYMid meet">

<g transform="translate(0.000000,564.000000) scale(0.100000,-0.100000)"
fill="#000000" stroke="none">
<path d="M2450 5620 c-504 -67 -950 -253 -1365 -569 -126 -96 -388 -356 -485
-481 -112 -146 -222 -319 -300 -472 -38 -76 -70 -144 -70 -151 0 -7 9 -20 20
-29 23 -21 116 -85 129 -90 8 -3 -9 -220 -28 -356 -13 -86 -87 -233 -158 -311
-30 -34 -63 -61 -73 -61 -10 0 -37 21 -59 46 -31 36 -41 42 -41 27 0 -23 79
-103 103 -103 38 0 118 90 185 210 l32 55 -5 -144 -4 -145 30 35 c17 19 61 79
100 133 38 55 69 95 69 90 0 -68 -41 -191 -94 -279 -75 -127 -254 -296 -399
-378 -23 -13 -37 -28 -37 -40 0 -18 1 -18 25 -3 14 9 37 24 53 33 189 118 371
320 432 482 l17 44 7 -49 c6 -45 53 -153 56 -129 1 6 3 35 5 65 2 30 14 84 28
119 l24 64 6 -59 c5 -60 3 -97 -9 -148 -5 -20 -3 -27 4 -22 17 10 23 -8 49
-148 13 -72 40 -194 60 -271 66 -260 65 -248 37 -344 -36 -126 -91 -226 -188
-346 -23 -27 -43 -52 -46 -55 -3 -3 -30 -34 -60 -70 -30 -36 -87 -99 -127
-140 -66 -68 -87 -100 -65 -100 11 0 168 171 263 286 109 132 160 209 215 329
l45 100 -3 -61 c-3 -47 -14 -81 -48 -150 -24 -49 -46 -93 -48 -98 -3 -5 17 -6
44 -2 39 6 46 5 37 -5 -7 -6 -40 -15 -75 -18 l-63 -7 74 -48 c41 -26 80 -50
87 -53 23 -9 16 -23 -11 -23 -14 0 -25 -6 -25 -12 0 -7 30 -44 66 -83 36 -38
90 -105 120 -147 76 -106 176 -207 259 -260 146 -93 546 -276 738 -338 20 -6
37 -12 37 -13 0 -1 -53 -3 -118 -5 -135 -2 -253 -22 -355 -58 -79 -29 -195
-90 -242 -128 -29 -24 -29 -24 -18 -77 12 -58 86 -254 105 -276 27 -32 24 -7
-7 59 -36 80 -95 242 -95 263 0 17 163 105 259 139 112 40 236 58 411 59 148
0 159 -1 245 -31 143 -50 254 -65 468 -66 152 -1 184 -3 170 -14 -9 -6 -27
-12 -40 -12 -39 0 -26 -28 24 -53 28 -15 42 -27 35 -31 -19 -11 -14 -26 7 -26
11 0 23 -5 27 -12 4 -7 3 -8 -4 -4 -11 6 -152 -36 -483 -143 -107 -35 -159
-57 -164 -69 -17 -43 -18 -182 0 -244 19 -72 57 -143 83 -157 9 -5 84 -17 166
-26 119 -14 197 -16 395 -12 135 3 256 8 268 12 21 7 19 12 -44 79 -127 136
-194 239 -234 355 -31 90 -27 119 29 172 53 52 129 100 185 118 24 8 75 12
135 10 59 -3 98 0 100 6 1 6 -43 11 -114 13 l-117 3 -79 -41 c-43 -22 -88 -40
-100 -40 -20 0 -21 1 -3 20 18 20 17 20 -16 20 -19 1 -47 7 -64 14 l-30 14 30
11 c30 12 65 39 65 50 0 3 -96 6 -213 7 -228 1 -272 7 -462 64 -356 107 -542
180 -810 319 -184 95 -241 136 -327 235 -90 103 -98 114 -61 84 33 -26 71 -44
79 -36 2 3 -16 18 -40 34 -51 34 -238 228 -229 238 3 3 16 6 27 6 16 0 18 2 7
9 -10 7 -10 10 -1 13 7 2 -20 25 -61 51 -59 37 -69 46 -49 47 32 0 93 37 87
53 -2 7 -20 13 -41 15 -20 2 -36 6 -34 10 45 86 71 151 79 199 12 68 6 105
-61 393 -42 179 -92 431 -87 436 1 2 28 -17 59 -42 36 -28 59 -40 63 -34 4 6
0 17 -9 23 -8 7 -22 29 -31 50 -15 36 -15 39 9 70 23 30 135 94 230 132 48 19
56 19 56 -1 0 -12 6 -10 30 9 41 35 65 41 97 25 34 -16 73 -73 73 -105 0 -62
-63 -133 -117 -133 -13 0 -23 -4 -23 -9 0 -5 14 -49 31 -98 70 -199 176 -361
274 -419 42 -24 45 -25 87 -10 126 42 136 56 145 200 l6 89 -24 -16 c-29 -21
-59 -22 -59 -3 0 18 38 46 63 46 16 0 17 6 11 53 -19 165 -72 385 -110 459
-18 34 -18 35 6 41 25 7 17 33 -13 41 -21 6 -20 7 8 20 30 13 29 13 -35 20
-70 8 -151 -2 -290 -35 -218 -51 -363 -109 -495 -198 l-60 -41 -8 63 c-16 131
62 371 173 533 112 164 202 225 334 226 47 0 72 -7 130 -36 118 -59 296 -204
494 -404 62 -63 114 -112 116 -111 1 2 8 33 15 68 14 74 84 267 144 396 185
402 473 779 718 940 167 110 257 147 392 164 95 11 335 -3 427 -25 113 -28
337 -143 415 -214 17 -15 55 -43 85 -62 30 -20 105 -86 165 -149 108 -111 216
-258 410 -556 38 -59 87 -125 107 -147 21 -21 38 -40 38 -42 0 -2 -17 0 -37 3
-66 10 -24 -14 62 -36 63 -15 109 -19 213 -18 l134 2 -6 -47 c-15 -107 -77
-259 -125 -302 -19 -18 -29 -46 -15 -46 3 0 39 15 79 34 l75 35 -16 -37 c-32
-74 -30 -89 9 -55 20 18 20 17 13 -27 -20 -141 -20 -144 -3 -137 22 8 22 6 -9
-115 -14 -57 -42 -131 -61 -166 -19 -35 -33 -66 -30 -69 3 -2 11 5 17 17 6 12
14 20 16 17 5 -5 -18 -72 -42 -123 -9 -19 -15 -37 -12 -39 3 -3 31 9 62 26 58
32 58 32 51 8 -10 -36 -86 -212 -95 -224 -21 -26 -80 -139 -80 -153 0 -30
-106 -235 -164 -317 -57 -80 -75 -122 -32 -74 l23 26 80 -101 c44 -55 112
-134 149 -175 79 -86 203 -195 212 -187 3 3 -24 32 -59 63 -35 31 -88 82 -118
112 -72 75 -251 290 -251 302 0 5 21 39 46 75 53 79 79 128 129 249 20 50 52
117 70 150 71 128 132 295 107 295 -5 0 -26 -7 -47 -16 -20 -8 -39 -14 -41
-11 -2 2 5 25 15 53 11 27 35 112 55 189 20 77 44 159 52 183 18 50 15 58 -17
42 -20 -11 -21 -11 -15 11 14 48 19 148 8 162 -9 10 -8 22 0 45 7 17 10 34 7
36 -3 3 -36 -11 -74 -31 l-69 -36 21 29 c48 67 103 231 103 305 0 30 6 51 15
59 28 23 0 34 -32 12 -15 -11 -40 -23 -55 -26 l-27 -6 35 51 c38 56 46 104 17
95 -10 -2 -33 -8 -52 -11 l-34 -7 20 28 c12 16 30 38 42 48 31 28 26 44 -16
51 -21 4 -50 8 -64 11 -14 3 -51 30 -81 62 l-56 57 149 65 c82 36 149 68 149
72 0 3 -35 60 -78 125 -410 619 -1062 1057 -1790 1203 -56 11 -124 23 -150 25
-26 3 -81 9 -122 15 -128 16 -498 10 -650 -10z m-810 -3024 c0 -52 -71 -78
-78 -28 -5 32 15 52 49 52 24 0 29 -4 29 -24z"/>
<path d="M3865 4430 c-269 -54 -711 -200 -939 -309 -114 -56 -330 -201 -317
-214 7 -7 18 -7 35 1 24 11 24 10 14 -21 -5 -18 -12 -39 -15 -48 -8 -29 17
-32 45 -6 25 23 64 47 76 47 2 0 6 -10 8 -22 l3 -23 20 21 c29 31 99 64 135
64 79 0 138 -58 127 -126 -7 -43 -60 -120 -100 -145 -24 -15 -44 -19 -79 -16
-27 2 -48 1 -48 -3 0 -22 48 -150 91 -239 54 -113 125 -216 193 -279 34 -31
55 -42 92 -48 112 -17 267 39 347 125 48 51 92 122 102 164 8 30 4 33 -25 15
-27 -17 -50 4 -34 30 16 24 61 28 66 5 2 -10 10 21 18 69 24 160 -2 532 -50
707 -5 19 -8 36 -6 38 9 9 302 83 312 79 20 -8 44 -104 45 -180 0 -73 10 -118
22 -99 4 6 11 53 17 104 10 86 26 166 50 245 14 43 13 44 -17 44 -43 0 -73 11
-73 26 0 17 -2 17 -115 -6z m-267 -1126 c3 -20 -38 -74 -57 -74 -14 0 -41 29
-41 46 0 46 92 73 98 28z"/>
<path d="M2725 4064 c-122 -52 -156 -64 -186 -64 -20 0 -29 -4 -26 -12 8 -24
73 -11 180 37 102 45 134 65 105 65 -7 0 -40 -12 -73 -26z"/>
<path d="M1395 3460 c-38 -10 -80 -19 -92 -19 -13 -1 -23 -5 -23 -11 0 -13 -3
-13 110 5 135 22 151 25 144 36 -8 14 -62 10 -139 -11z"/>
<path d="M2148 2493 c-40 -21 -73 -42 -73 -48 0 -17 74 -17 126 0 57 19 77 45
53 69 -21 22 -22 21 -106 -21z"/>
<path d="M4550 1840 c-124 -30 -386 -153 -525 -246 -110 -73 -196 -147 -314
-270 -125 -129 -200 -237 -289 -410 -113 -222 -127 -281 -124 -512 3 -164 4
-176 33 -250 42 -111 34 -105 115 -87 124 29 277 76 394 122 135 53 378 174
419 209 44 37 92 161 98 253 9 130 -25 236 -107 339 -54 67 -108 96 -164 88
-88 -14 -369 -111 -506 -174 -117 -54 -163 -72 -168 -68 -8 9 76 170 136 261
101 153 279 334 442 450 168 118 452 253 601 286 116 24 124 27 74 27 -22 1
-74 -8 -115 -18z"/>
<path d="M4740 1857 c0 -2 9 -30 20 -63 72 -205 119 -471 127 -706 3 -98 10
-175 14 -172 25 15 -5 413 -45 594 -41 187 -92 350 -111 350 -3 0 -5 -2 -5 -3z"/>
<path d="M2777 1413 c-11 -10 -8 -53 3 -53 6 0 10 7 10 16 0 14 8 16 50 10 62
-8 66 8 6 23 -52 13 -60 13 -69 4z"/>
</g>
</svg>
