<?xml version="1.0" standalone="no"?>
<!DOCTYPE svg PUBLIC "-//W3C//DTD SVG 20010904//EN"
 "http://www.w3.org/TR/2001/REC-SVG-20010904/DTD/svg10.dtd">
<svg version="1.0" xmlns="http://www.w3.org/2000/svg"
 width="564.000000pt" height="564.000000pt" viewBox="0 0 564.000000 564.000000"
 preserveAspectRatio="xMidYMid meet">

<g transform="translate(0.000000,564.000000) scale(0.100000,-0.100000)"
fill="#000000" stroke="none">
<path d="M2450 5620 c-504 -67 -950 -253 -1365 -569 -126 -96 -388 -356 -485
-481 -112 -146 -222 -319 -300 -472 -38 -76 -70 -144 -70 -151 0 -7 9 -20 20
-29 23 -21 116 -85 129 -90 8 -3 -9 -220 -28 -356 -13 -86 -87 -233 -158 -311
-30 -34 -63 -61 -73 -61 -10 0 -37 21 -59 46 -31 36 -41 42 -41 27 0 -23 79
-103 103 -103 38 0 118 90 185 210 l32 55 -5 -144 -4 -145 30 35 c17 19 61 79
100 133 38 55 69 95 69 90 0 -68 -41 -191 -94 -279 -75 -127 -254 -296 -399
-378 -23 -13 -37 -28 -37 -40 0 -18 1 -18 25 -3 14 9 37 24 53 33 189 118 371
320 432 482 l17 44 7 -49 c6 -45 53 -153 56 -129 1 6 3 35 5 65 2 30 14 84 28
119 l24 64 6 -59 c5 -60 3 -97 -9 -148 -5 -20 -3 -27 4 -22 17 10 23 -8 49
-148 13 -72 40 -194 60 -271 66 -260 65 -248 37 -344 -36 -126 -91 -226 -188
-346 -23 -27 -43 -52 -46 -55 -3 -3 -30 -34 -60 -70 -30 -36 -87 -99 -127
-140 -66 -68 -87 -100 -65 -100 11 0 168 171 263 286 109 132 160 209 215 329
l45 100 -3 -61 c-3 -47 -14 -81 -48 -150 -24 -49 -46 -93 -48 -98 -3 -5 17 -6
44 -2 39 6 46 5 37 -5 -7 -6 -40 -15 -75 -18 l-63 -7 74 -48 c41 -26 80 -50
87 -53 23 -9 16 -23 -11 -23 -14 0 -25 -6 -25 -12 0 -7 30 -44 66 -83 36 -38
90 -105 120 -147 76 -106 176 -207 259 -260 146 -93 546 -276 738 -338 20 -6
37 -12 37 -13 0 -1 -53 -3 -118 -5 -135 -2 -253 -22 -355 -58 -79 -29 -195
-90 -242 -128 -29 -24 -29 -24 -18 -77 12 -58 86 -254 105 -276 27 -32 24 -7
-7 59 -36 80 -95 242 -95 263 0 17 163 105 259 139 112 40 236 58 411 59 148
0 159 -1 245 -31 143 -50 254 -65 468 -66 152 -1 184 -3 170 -14 -9 -6 -27
-12 -40 -12 -39 0 -26 -28 24 -53 28 -15 42 -27 35 -31 -19 -11 -14 -26 7 -26
11 0 23 -5 27 -12 4 -7 3 -8 -4 -4 -11 6 -152 -36 -483 -143 -107 -35 -159
-57 -164 -69 -17 -43 -18 -182 0 -244 19 -72 57 -143 83 -157 9 -5 84 -17 165
-26 118 -14 198 -16 395 -12 136 3 257 8 269 12 21 7 19 12 -44 79 -127 136
-194 239 -234 355 -31 90 -27 119 29 172 53 52 129 100 185 118 24 8 75 12
135 10 59 -3 98 0 100 6 1 6 -43 11 -114 13 l-117 3 -79 -41 c-43 -22 -88 -40
-100 -40 -20 0 -21 1 -3 20 18 20 17 20 -16 20 -19 1 -47 7 -64 14 l-30 14 30
11 c30 12 65 39 65 50 0 3 -96 6 -213 7 -228 1 -272 7 -462 64 -356 107 -542
180 -810 319 -184 95 -241 136 -327 235 -90 103 -98 114 -61 84 33 -26 71 -44
79 -36 2 3 -16 18 -40 34 -51 34 -238 228 -229 238 3 3 16 6 27 6 16 0 18 2 7
9 -10 7 -10 10 -1 13 7 2 -20 25 -61 51 -59 37 -69 46 -49 47 32 0 93 37 87
53 -2 7 -20 13 -41 15 -20 2 -36 6 -34 10 45 86 71 151 79 199 12 68 6 105
-61 393 -42 179 -92 431 -87 436 1 2 28 -17 59 -42 36 -28 59 -40 63 -34 4 6
0 17 -9 23 -8 7 -22 29 -31 50 -15 36 -15 39 9 70 23 30 135 94 230 132 48 19
56 19 56 -1 0 -12 6 -10 30 9 41 35 65 41 97 25 34 -16 73 -73 73 -105 0 -62
-63 -133 -117 -133 -13 0 -23 -4 -23 -9 0 -5 14 -49 31 -98 70 -199 176 -361
274 -419 42 -24 45 -25 87 -10 126 42 136 56 145 200 l6 89 -24 -16 c-29 -21
-59 -22 -59 -3 0 18 38 46 63 46 16 0 17 6 11 53 -19 165 -72 385 -110 459
-18 34 -18 35 6 41 25 7 17 33 -13 41 -21 6 -20 7 8 20 30 13 29 13 -35 20
-70 8 -151 -2 -290 -35 -218 -51 -363 -109 -495 -198 l-60 -41 -8 63 c-16 131
62 371 173 533 112 164 202 225 334 226 47 0 72 -7 130 -36 118 -59 296 -204
494 -404 62 -63 114 -112 116 -111 1 2 8 33 15 68 14 74 84 267 144 396 185
402 473 779 718 940 167 110 257 147 392 164 95 11 335 -3 427 -25 113 -28
337 -143 415 -214 17 -15 55 -43 85 -62 30 -20 105 -86 165 -149 108 -111 216
-258 410 -556 38 -59 87 -125 107 -147 21 -21 38 -40 38 -42 0 -2 -17 0 -37 3
-66 10 -24 -14 62 -36 63 -15 109 -19 213 -18 l134 2 -6 -47 c-15 -107 -77
-259 -125 -302 -19 -18 -29 -46 -15 -46 3 0 39 15 79 34 l75 35 -16 -37 c-32
-74 -30 -89 9 -55 20 18 20 17 13 -27 -20 -141 -20 -144 -3 -137 22 8 22 6 -9
-115 -14 -57 -42 -131 -61 -166 -19 -35 -33 -66 -30 -69 3 -2 11 5 17 17 6 12
14 20 16 17 5 -5 -18 -72 -42 -123 -9 -19 -15 -37 -12 -39 3 -3 31 9 62 26 58
32 58 32 51 8 -10 -36 -86 -212 -95 -224 -21 -26 -80 -139 -80 -153 0 -30
-106 -235 -164 -317 -57 -80 -75 -122 -32 -74 l23 26 80 -101 c138 -173 330
-366 366 -366 6 0 -20 28 -58 62 -39 34 -94 87 -124 117 -72 75 -251 290 -251
302 0 5 21 39 46 75 53 79 79 128 129 249 20 50 52 117 70 150 71 128 132 295
107 295 -5 0 -26 -7 -47 -16 -20 -8 -39 -14 -41 -11 -2 2 5 25 15 53 11 27 35
112 55 189 20 77 44 159 52 183 18 50 15 58 -17 42 -20 -11 -21 -11 -15 11 14
48 19 148 8 162 -9 10 -8 22 0 45 7 17 10 34 7 36 -3 3 -36 -11 -74 -31 l-69
-36 21 29 c48 67 103 231 103 305 0 30 6 51 15 59 28 23 0 34 -32 12 -15 -11
-40 -23 -55 -26 l-27 -6 35 51 c38 56 46 104 17 95 -10 -2 -33 -8 -52 -11
l-34 -7 20 28 c12 16 30 38 42 48 17 15 29 46 19 46 -2 0 -30 5 -63 10 -53 9
-65 15 -116 66 l-58 57 149 66 c82 37 152 69 155 72 7 8 -113 190 -205 309
-96 125 -359 385 -485 481 -370 282 -751 454 -1200 543 -44 9 -102 18 -130 21
-27 3 -81 9 -120 15 -118 16 -502 10 -655 -10z m-810 -3024 c0 -52 -71 -78
-78 -28 -5 32 15 52 49 52 24 0 29 -4 29 -24z"/>
<path d="M3865 4430 c-269 -54 -711 -200 -939 -309 -114 -56 -330 -201 -317
-214 7 -7 18 -7 35 1 24 11 24 10 14 -21 -5 -18 -12 -39 -15 -48 -8 -29 17
-32 45 -6 25 23 64 47 76 47 2 0 6 -10 8 -22 l3 -23 20 21 c29 31 99 64 135
64 79 0 138 -58 127 -126 -7 -43 -60 -120 -100 -145 -24 -15 -44 -19 -79 -16
-27 2 -48 1 -48 -3 0 -22 48 -150 91 -239 54 -113 125 -216 193 -279 34 -31
55 -42 92 -48 112 -17 267 39 347 125 48 51 92 122 102 164 8 30 4 33 -25 15
-27 -17 -50 4 -34 30 16 24 61 28 66 5 2 -10 10 21 18 69 24 160 -2 532 -50
707 -5 19 -8 36 -6 38 9 9 302 83 312 79 20 -8 44 -104 45 -180 0 -73 10 -118
22 -99 4 6 11 53 17 104 10 86 26 166 50 245 14 43 13 44 -17 44 -43 0 -73 11
-73 26 0 17 -2 17 -115 -6z m-267 -1126 c3 -20 -38 -74 -57 -74 -14 0 -41 29
-41 46 0 46 92 73 98 28z"/>
<path d="M2725 4064 c-122 -52 -156 -64 -186 -64 -20 0 -29 -4 -26 -12 8 -24
73 -11 180 37 102 45 134 65 105 65 -7 0 -40 -12 -73 -26z"/>
<path d="M1395 3460 c-38 -10 -80 -19 -92 -19 -13 -1 -23 -5 -23 -11 0 -13 -3
-13 110 5 135 22 151 25 144 36 -8 14 -62 10 -139 -11z"/>
<path d="M2148 2493 c-40 -21 -73 -42 -73 -48 0 -17 74 -17 126 0 57 19 77 45
53 69 -21 22 -22 21 -106 -21z"/>
<path d="M4550 1840 c-124 -30 -386 -153 -525 -246 -171 -114 -381 -320 -485
-476 -79 -118 -192 -349 -221 -453 -41 -144 -25 -422 32 -563 12 -28 24 -52
28 -52 23 0 263 65 346 93 192 66 217 78 203 95 -12 13 -10 14 11 3 13 -7 21
-9 17 -3 -8 13 30 46 43 37 7 -4 11 7 11 29 0 20 -4 36 -10 36 -5 0 -10 7 -10
16 0 23 -25 44 -54 44 -17 0 -26 6 -26 15 0 23 -46 65 -70 65 -13 0 -20 -7
-20 -20 0 -16 -7 -20 -31 -20 -17 0 -28 4 -24 10 3 5 -2 10 -12 10 -17 1 -17
1 0 11 9 5 17 15 17 20 0 6 -5 7 -11 3 -6 -3 -14 -2 -18 4 -4 7 -12 8 -21 2
-10 -7 -11 -10 -2 -10 6 0 12 -4 12 -9 0 -24 -86 40 -152 112 -40 43 -73 82
-73 85 -1 16 -17 32 -27 26 -6 -4 -8 1 -3 16 4 12 3 20 -1 17 -5 -3 -10 6 -10
19 -2 32 13 21 21 -16 4 -17 11 -30 17 -30 6 0 7 7 4 16 -4 11 2 8 18 -7 26
-25 27 -41 1 -19 -16 13 -20 3 -7 -18 5 -8 16 -10 28 -5 17 6 17 5 5 -10 -8
-10 -11 -21 -7 -24 4 -4 10 -2 14 4 11 17 63 8 122 -20 29 -14 50 -19 50 -13
0 6 5 4 10 -4 9 -13 10 -13 10 1 0 8 -5 20 -12 27 -9 9 -7 12 11 12 24 0 25
13 6 65 -5 15 -4 16 3 6 8 -11 12 -10 21 7 14 26 14 45 1 37 -6 -3 -7 1 -4 10
6 14 8 14 26 -2 19 -17 19 -16 8 11 -9 25 -7 34 15 65 44 64 82 103 96 99 8
-1 14 2 14 7 0 6 -4 9 -10 7 -5 -2 2 8 17 21 15 13 25 26 22 30 -3 3 3 4 13 3
10 0 17 4 16 11 -2 7 4 10 12 7 21 -9 67 5 60 17 -5 7 -11 6 -21 -1 -7 -7 -19
-10 -26 -8 -8 3 -3 10 12 18 14 7 31 21 38 32 7 10 18 18 24 18 7 0 5 -6 -4
-12 -11 -10 -13 -20 -7 -38 9 -25 9 -25 5 2 -3 25 -1 27 23 22 20 -4 23 -3 11
5 -13 9 -13 11 3 11 9 0 17 5 17 10 0 6 7 10 15 10 8 0 15 4 15 10 0 5 -8 7
-17 3 -22 -8 -18 -3 26 27 19 13 32 19 28 13 -10 -17 81 -8 133 13 25 10 53
26 62 37 12 13 31 19 63 19 25 1 41 4 35 8 -21 13 16 31 47 23 l28 -7 -30 -6
c-20 -5 -9 -6 32 -6 34 0 59 4 57 8 -3 5 -17 8 -32 8 -18 0 -23 3 -14 9 7 4
25 6 40 4 16 -3 22 -1 15 4 -6 4 43 8 110 8 94 1 112 -1 77 -7 -25 -5 -70 -7
-100 -4 -47 4 -50 4 -20 -4 19 -6 69 -7 110 -4 54 4 71 2 60 -5 -9 -7 -10 -11
-3 -11 6 0 15 5 18 10 3 6 18 10 33 9 24 0 25 -1 7 -9 -17 -7 -14 -9 13 -9 18
-1 31 2 29 7 -3 4 16 7 42 8 l46 1 -40 -13 c-22 -7 -32 -13 -23 -13 9 -1 25
-4 35 -7 15 -5 15 -4 3 5 -11 8 -3 11 38 11 45 0 52 -3 52 -20 0 -18 -7 -20
-81 -20 -62 0 -80 3 -76 13 3 9 -5 12 -29 9 -19 -2 -34 -8 -34 -13 0 -5 -22
-9 -50 -9 -27 0 -50 5 -50 10 0 6 -26 11 -57 12 l-58 1 60 7 c57 6 58 7 15 8
-25 1 -63 4 -85 7 -29 3 -33 3 -15 -3 l25 -8 -22 -8 c-13 -4 -23 -12 -23 -17
0 -5 -36 -9 -80 -9 -47 0 -80 -4 -80 -10 0 -5 14 -10 30 -10 17 0 30 -4 30
-10 0 -6 90 -10 250 -10 160 0 250 4 250 10 0 6 17 10 37 10 29 0 43 7 70 36
55 60 58 58 -141 93 -33 6 -74 11 -92 11 -27 0 -35 5 -38 23 -3 12 -14 69 -26
127 -37 181 -100 383 -116 368 -2 -3 5 -31 16 -64 26 -74 74 -265 93 -365 l14
-76 -141 -6 c-197 -9 -342 -43 -501 -118 -103 -48 -203 -115 -285 -188 -64
-57 -68 -58 -270 -124 -197 -64 -206 -65 -223 -48 -18 17 -17 20 22 95 112
213 306 429 521 581 168 118 452 253 601 286 116 24 124 27 74 27 -22 1 -74
-8 -115 -18z m367 -546 c-3 -3 -12 -4 -19 -1 -8 3 -5 6 6 6 11 1 17 -2 13 -5z
m-547 -74 c-7 -14 -17 -19 -29 -15 -10 3 -29 1 -42 -5 -22 -10 -22 -10 6 -5
21 4 25 2 15 -4 -24 -15 -87 -24 -94 -13 -3 5 6 7 22 5 18 -3 23 -2 14 5 -9 6
0 12 30 21 24 7 50 17 58 21 25 14 31 11 20 -10z m-610 -540 c0 -5 -5 -10 -11
-10 -5 0 -7 5 -4 10 3 6 8 10 11 10 2 0 4 -4 4 -10z m82 -268 c-27 -9 -9 -17
28 -14 34 4 40 1 40 -15 0 -20 42 -63 60 -63 16 0 11 -32 -7 -46 -23 -17 -36
-18 -27 -1 5 8 2 7 -10 -2 -15 -12 -19 -12 -34 3 -16 16 -16 17 2 10 14 -5 17
-3 14 7 -3 8 -15 13 -26 12 -27 -3 -62 40 -55 67 4 16 2 19 -12 14 -15 -6 -16
-4 -3 17 17 31 32 42 37 27 2 -7 -1 -14 -7 -16z m-42 3 c0 -8 -2 -15 -4 -15
-2 0 -6 7 -10 15 -3 8 -1 15 4 15 6 0 10 -7 10 -15z"/>
<path d="M3837 367 c-6 -16 18 -57 34 -57 5 0 9 7 9 15 0 18 11 19 30 3 8 -7
6 -3 -4 9 -16 19 -20 20 -33 8 -18 -19 -27 -19 -20 -2 3 8 2 19 -3 26 -5 10
-9 9 -13 -2z"/>
<path d="M2777 1413 c-11 -10 -8 -53 3 -53 6 0 10 7 10 16 0 14 8 16 50 10 62
-8 66 8 6 23 -52 13 -60 13 -69 4z"/>
<path d="M5068 1243 c6 -2 18 -2 25 0 6 3 1 5 -13 5 -14 0 -19 -2 -12 -5z"/>
<path d="M4403 1175 c5 -13 87 -19 87 -7 0 6 -20 12 -45 14 -27 2 -44 -1 -42
-7z"/>
<path d="M4348 1163 c6 -2 18 -2 25 0 6 3 1 5 -13 5 -14 0 -19 -2 -12 -5z"/>
<path d="M4153 1103 c-7 -2 -13 -17 -13 -31 0 -41 -11 -50 -58 -50 -46 -1 -83
-29 -81 -61 1 -13 2 -13 6 2 3 11 14 17 34 17 19 0 29 5 29 15 0 8 4 15 9 15
5 0 16 -7 25 -15 8 -8 26 -15 40 -15 27 0 35 15 14 23 -10 4 -10 7 0 14 7 5
11 27 10 51 -1 23 -2 42 -2 41 -1 0 -7 -3 -13 -6z"/>
<path d="M3959 978 c-1 -7 -1 -20 0 -29 1 -9 -7 -19 -19 -22 -11 -3 -20 -1
-20 4 0 5 -5 9 -11 9 -8 0 -8 -4 1 -14 9 -11 18 -13 37 -5 19 7 29 6 37 -2 8
-9 8 -10 -1 -5 -14 8 -43 -31 -43 -57 0 -10 -4 -16 -9 -13 -5 4 -7 -3 -4 -14
5 -18 7 -16 23 12 10 18 15 39 13 46 -3 6 2 12 10 12 9 0 22 3 31 6 9 3 16 1
16 -5 0 -6 -9 -11 -20 -11 -11 0 -20 -4 -20 -10 0 -15 29 -12 46 5 14 13 12
18 -13 40 -15 13 -32 25 -36 25 -5 0 -5 9 -2 20 4 11 2 20 -4 20 -6 0 -12 -6
-12 -12z"/>
<path d="M3873 895 c-13 -12 -20 -25 -16 -28 11 -12 23 -8 23 8 0 8 7 15 15
15 8 0 15 -4 15 -10 0 -5 -4 -10 -10 -10 -26 0 -32 -45 -25 -195 l7 -153 29
-4 28 -4 -6 80 c-3 45 -10 83 -14 86 -9 7 -14 169 -5 190 4 9 1 23 -6 31 -12
14 -15 13 -35 -6z"/>
<path d="M4065 910 c19 -7 19 -7 -3 -19 -16 -8 -22 -21 -22 -44 0 -25 2 -29
11 -17 9 12 10 12 5 -3 -3 -10 -6 -21 -6 -23 0 -2 -4 -4 -10 -4 -5 0 -10 11
-10 25 0 32 -23 42 -56 25 -21 -12 -23 -19 -19 -54 3 -27 2 -33 -3 -17 -4 14
-7 -8 -7 -58 0 -74 11 -86 15 -16 2 19 4 23 7 12 3 -10 0 -48 -7 -84 -9 -56
-9 -69 5 -90 9 -13 14 -30 11 -36 -3 -9 -5 -9 -5 1 -1 6 -6 12 -11 12 -6 0 -8
-11 -5 -25 3 -14 7 -36 10 -50 4 -17 12 -25 25 -25 16 0 20 -7 20 -30 l0 -30
103 0 c56 0 109 5 117 10 11 7 5 10 -22 10 -36 0 -38 1 -38 34 0 19 3 41 6 50
5 13 9 12 27 -5 18 -16 23 -17 32 -6 5 8 16 12 24 9 7 -2 17 2 22 9 8 12 10
12 18 0 8 -12 14 -13 36 -3 14 6 28 19 31 27 6 14 8 14 18 0 15 -21 46 -9 46
19 0 16 2 18 9 7 7 -11 22 -4 72 34 35 27 68 51 72 55 5 4 1 15 -8 24 -15 14
-15 16 -1 16 9 0 16 7 16 16 0 14 -3 14 -15 4 -11 -9 -19 -9 -28 -2 -19 16
-236 12 -230 -4 2 -6 -3 -14 -12 -18 -12 -4 -15 -1 -11 12 4 13 1 19 -9 19
-10 0 -14 -6 -10 -15 5 -13 3 -13 -11 -1 -8 7 -24 13 -35 14 -15 1 -16 -1 -7
-12 9 -11 13 -12 19 -1 7 10 9 9 9 -3 0 -28 -13 -30 -39 -7 -14 13 -19 15 -12
5 12 -15 11 -20 -1 -35 -9 -9 -18 -24 -21 -32 -4 -10 -6 -11 -6 -2 -1 7 -5 11
-9 8 -5 -3 -6 8 -4 24 2 17 9 27 14 24 5 -3 7 -13 3 -23 -5 -12 -3 -13 6 -4 7
7 9 19 4 30 -5 10 -8 21 -7 25 1 3 -5 11 -12 17 -10 9 -12 21 -5 52 6 25 6 46
0 53 -21 26 -50 86 -42 86 6 0 12 -9 16 -19 3 -11 13 -22 22 -25 14 -6 14 -4
2 10 -7 9 -13 28 -14 42 0 25 -3 27 -50 28 -31 1 -42 -1 -30 -6z m65 -10 c0
-5 -4 -10 -10 -10 -5 0 -10 5 -10 10 0 6 5 10 10 10 6 0 10 -4 10 -10z m-49
-31 c-12 -12 -25 -18 -28 -15 -4 3 2 13 13 21 29 22 41 18 15 -6z m-104 -101
c-3 -7 -5 -2 -5 12 0 14 2 19 5 13 2 -7 2 -19 0 -25z m80 -5 c1 -22 -1 -24 -8
-10 -6 9 -7 22 -4 27 9 14 10 13 12 -17z m93 -10 c-11 -17 -11 -17 -6 0 3 10
6 24 7 30 0 9 2 9 5 0 3 -7 0 -20 -6 -30z m273 -90 c-7 -2 -13 -9 -13 -14 0
-4 7 -5 17 -2 11 4 14 3 9 -5 -8 -13 16 -17 28 -5 10 11 36 12 36 2 0 -5 -4
-9 -10 -9 -5 0 -7 -7 -3 -16 5 -13 9 -11 22 10 9 14 19 26 24 26 5 0 -2 -14
-14 -31 -20 -28 -24 -30 -34 -15 -16 21 -39 20 -61 -1 -16 -16 -16 -16 -10 5
9 28 -9 29 -24 1 -10 -18 -13 -19 -23 -6 -17 20 -45 28 -51 14 -3 -7 -4 -3 -3
8 2 16 9 19 35 17 18 -2 32 1 32 7 0 5 8 12 18 14 23 6 40 7 25 0z m64 1 c-3
-3 -12 -4 -19 -1 -8 3 -5 6 6 6 11 1 17 -2 13 -5z m40 0 c-3 -3 -12 -4 -19 -1
-8 3 -5 6 6 6 11 1 17 -2 13 -5z m-477 -89 c7 -8 9 -15 6 -15 -4 0 -14 7 -22
15 -9 8 -11 15 -6 15 5 0 15 -7 22 -15z m212 -17 c-7 -7 -12 -8 -12 -2 0 14
12 26 19 19 2 -3 -1 -11 -7 -17z m-167 -13 c0 -12 -9 -21 -24 -25 -35 -8 -36
-24 -5 -49 15 -12 21 -21 13 -21 -8 0 -25 -3 -39 -6 -20 -5 -22 -3 -10 5 13
10 13 13 -4 26 -15 11 -17 17 -7 29 9 11 9 15 -1 19 -7 2 -9 8 -5 13 4 5 11 3
15 -3 4 -7 19 -9 37 -5 l30 6 -30 7 -30 7 30 1 c24 1 27 3 15 12 -13 9 -13 10
0 6 8 -2 15 -12 15 -22z m100 15 c3 -5 -3 -10 -14 -10 -12 0 -21 5 -21 10 0 6
6 10 14 10 8 0 18 -4 21 -10z m4 -54 c-1 -16 -2 -17 -6 -3 -2 9 -11 17 -19 17
-8 0 -13 4 -9 10 10 16 35 -1 34 -24z m95 -6 c8 0 20 8 26 18 10 15 11 14 7
-5 -3 -13 -1 -23 5 -23 5 0 6 -4 3 -10 -4 -6 -12 -6 -23 -1 -9 5 -25 12 -34
15 -11 3 -18 15 -17 28 l0 23 9 -22 c5 -13 16 -23 24 -23z m-54 -9 c-6 -12
-15 -21 -20 -21 -16 0 -12 17 5 24 8 3 15 13 16 23 0 10 3 13 5 6 3 -7 0 -21
-6 -32z m-150 9 c0 -5 -4 -10 -10 -10 -5 0 -10 5 -10 10 0 6 5 10 10 10 6 0
10 -4 10 -10z m175 -20 c3 -5 1 -10 -4 -10 -6 0 -11 5 -11 10 0 6 2 10 4 10 3
0 8 -4 11 -10z m-271 -28 c3 -5 -1 -9 -9 -9 -8 0 -15 4 -15 9 0 4 4 8 9 8 6 0
12 -4 15 -8z"/>
<path d="M4161 874 c0 -11 3 -14 6 -6 3 7 2 16 -1 19 -3 4 -6 -2 -5 -13z"/>
<path d="M3833 844 c-7 -7 -9 -15 -5 -17 4 -3 13 1 19 9 7 7 9 15 5 17 -4 3
-13 -1 -19 -9z"/>
<path d="M3810 815 c0 -5 5 -17 10 -25 5 -8 10 -10 10 -5 0 6 -5 17 -10 25 -5
8 -10 11 -10 5z"/>
<path d="M3821 713 c-9 -19 -9 -29 -2 -31 6 -2 11 -26 11 -53 0 -27 5 -49 10
-49 6 0 10 33 10 80 0 84 -8 99 -29 53z"/>
<path d="M4612 670 c6 -18 30 -20 34 -2 1 7 0 8 -3 2 -3 -7 -10 -7 -21 2 -13
11 -14 11 -10 -2z"/>
<path d="M3596 641 c5 -5 27 -14 48 -21 l39 -13 -24 -18 c-28 -21 -35 -23 -44
-9 -3 6 1 10 9 10 8 0 18 5 22 12 5 8 2 9 -12 3 -10 -4 -28 -7 -39 -7 -15 1
-10 -8 25 -39 50 -44 87 -68 76 -50 -13 20 59 12 82 -9 26 -24 32 -25 32 -4 0
28 -27 44 -73 44 -38 0 -46 3 -50 22 -4 12 -1 28 5 35 8 9 6 14 -8 19 -11 4
-34 13 -53 20 -39 16 -49 17 -35 5z m87 -93 c4 -12 4 -24 1 -27 -6 -7 -24 20
-24 37 0 21 17 13 23 -10z"/>
<path d="M3570 625 c7 -8 17 -15 22 -15 6 0 5 7 -2 15 -7 8 -17 15 -22 15 -6
0 -5 -7 2 -15z"/>
<path d="M3762 620 c0 -14 2 -19 5 -12 2 6 2 18 0 25 -3 6 -5 1 -5 -13z"/>
<path d="M3933 470 c0 -16 4 -27 9 -24 4 3 8 14 8 24 0 10 -4 21 -8 24 -5 3
-9 -8 -9 -24z"/>
<path d="M4350 465 c-7 -8 -19 -15 -28 -15 -8 0 -12 -3 -9 -6 8 -9 67 16 67
27 0 14 -16 11 -30 -6z"/>
<path d="M3980 249 c0 -5 5 -7 10 -4 6 3 10 8 10 11 0 2 -4 4 -10 4 -5 0 -10
-5 -10 -11z"/>
</g>
</svg>
